<svg width="27" height="25" viewBox="0 0 27 25" fill="none" xmlns="http://www.w3.org/2000/svg">
<path fill-rule="evenodd" clip-rule="evenodd" d="M13.3502 0C5.97421 0 0 5.73524 0 12.8162C0 18.4873 3.82149 23.2774 9.12819 24.9755C9.79569 25.0877 10.046 24.7032 10.046 24.3667C10.046 24.0624 10.0293 23.0531 10.0293 21.9797C6.67509 22.5725 5.80733 21.1947 5.54032 20.4738C5.39014 20.1054 4.73931 18.9679 4.17193 18.6636C3.70467 18.4232 3.03717 17.8305 4.15524 17.8145C5.20657 17.7985 5.95752 18.7437 6.20783 19.1281C7.40935 21.0666 9.32844 20.5219 10.0961 20.1855C10.2129 19.3524 10.5633 18.7917 10.9471 18.4713C7.97673 18.1509 4.87282 17.0455 4.87282 12.1433C4.87282 10.7496 5.39014 9.59611 6.24121 8.69898C6.10771 8.37857 5.64045 7.06492 6.37471 5.30269C6.37471 5.30269 7.49279 4.96627 10.046 6.61635C11.114 6.32799 12.2488 6.1838 13.3836 6.1838C14.5183 6.1838 15.6531 6.32799 16.7211 6.61635C19.2743 4.95025 20.3924 5.30269 20.3924 5.30269C21.1267 7.06492 20.6594 8.37857 20.5259 8.69898C21.377 9.59611 21.8943 10.7335 21.8943 12.1433C21.8943 17.0615 18.7737 18.1509 15.8033 18.4713C16.2872 18.8718 16.7044 19.6408 16.7044 20.8423C16.7044 22.5565 16.6877 23.9342 16.6877 24.3667C16.6877 24.7032 16.938 25.1037 17.6055 24.9755C20.2558 24.1165 22.5587 22.4814 24.1902 20.3001C25.8216 18.1189 26.6996 15.5015 26.7004 12.8162C26.7004 5.73524 20.7262 0 13.3502 0Z" fill="#A6CDD4"/>
</svg>
