<?xml version="1.0" encoding="utf-8"?>
<!-- Generator: Adobe Illustrator 15.1.0, SVG Export Plug-In  -->
<!DOCTYPE svg PUBLIC "-//W3C//DTD SVG 1.1//EN" "http://www.w3.org/Graphics/SVG/1.1/DTD/svg11.dtd" [
	<!ENTITY ns_flows "http://ns.adobe.com/Flows/1.0/">
]>
<svg version="1.1"
	 xmlns="http://www.w3.org/2000/svg" xmlns:xlink="http://www.w3.org/1999/xlink" xmlns:a="http://ns.adobe.com/AdobeSVGViewerExtensions/3.0/"
	 x="0px" y="0px" width="182px" height="22px" viewBox="0 0 182 22" overflow="visible" enable-background="new 0 0 182 22"
	 xml:space="preserve">
<defs>
</defs>
<path fill="#FF0000" d="M42.8,11.2h6.5l-3.5-5.6l-6.4,10.1l-2.9,0l7.7-12.1c0.3-0.5,0.9-0.8,1.5-0.8c0.6,0,1.2,0.3,1.5,0.8l7.8,12.1
	l-2.9,0l-1.4-2.3h-6.6L42.8,11.2"/>
<path fill="#FF0000" d="M72.8,13.5V3h-2.5v11.5c0,0.3,0.1,0.6,0.4,0.8c0.2,0.2,0.6,0.4,0.9,0.4h11.2l1.5-2.3H72.8"/>
<path fill="#FF0000" d="M32.2,11.6c2.4,0,4.3-1.9,4.3-4.3c0-2.4-1.9-4.3-4.3-4.3H21.5v12.8h2.5V5.2h8.1c1.1,0,2.1,0.9,2.1,2.1
	c0,1.1-0.9,2.1-2.1,2.1l-6.9,0l7.3,6.4H36l-4.9-4.1H32.2"/>
<path fill="#FF0000" d="M6.4,15.7C2.9,15.7,0,12.9,0,9.4S2.9,3,6.4,3h7.4c3.5,0,6.4,2.9,6.4,6.4s-2.8,6.4-6.4,6.4L6.4,15.7
	 M13.6,13.5c2.3,0,4.1-1.9,4.1-4.1c0-2.3-1.8-4.1-4.1-4.1H6.5c-2.3,0-4.1,1.8-4.1,4.1c0,2.3,1.8,4.1,4.1,4.1H13.6"/>
<path fill="#FF0000" d="M60.2,15.7c-3.5,0-6.4-2.8-6.4-6.4S56.7,3,60.2,3h8.8l-1.5,2.3h-7.2c-2.3,0-4.1,1.8-4.1,4.1
	c0,2.3,1.8,4.1,4.1,4.1h8.8l-1.4,2.2H60.2"/>
<path fill="#FF0000" d="M90.2,13.5c-1.9,0-3.5-1.3-4-3h10.5l1.4-2.2H86.3c0.5-1.7,2.1-3,4-3h7.2L98.9,3h-8.8c-3.5,0-6.4,2.9-6.4,6.4
	s2.9,6.4,6.4,6.4h7.6l1.4-2.2H90.2"/>
<path fill="#FF0000" d="M100.2,4.3c0-0.6,0.5-1.1,1.1-1.1c0.6,0,1.1,0.5,1.1,1.1c0,0.6-0.5,1.1-1.1,1.1C100.7,5.5,100.2,5,100.2,4.3
	 M101.3,5.8c0.8,0,1.4-0.6,1.4-1.4c0-0.8-0.6-1.4-1.4-1.4c-0.8,0-1.4,0.6-1.4,1.4C99.9,5.1,100.5,5.8,101.3,5.8 M101.2,3.5
	c0.2,0,0.3,0,0.4,0c0.3,0.1,0.3,0.4,0.3,0.5c0,0,0,0.1,0,0.1c0,0.1,0,0.2-0.2,0.3c0,0,0,0-0.1,0l0.4,0.7h-0.4l-0.3-0.6h-0.2v0.6
	h-0.3V3.5H101.2 M101.3,4.2c0.1,0,0.2,0,0.3-0.1c0,0,0.1-0.1,0.1-0.1c0-0.1-0.1-0.2-0.1-0.2c-0.1,0-0.1,0-0.3,0h-0.1v0.5H101.3"/>
<rect x="111.6" y="3.1" width="0.4" height="12.8"/>
<path fill-rule="evenodd" clip-rule="evenodd" fill="#7F7F7F" d="M142.4,5.2c3,0,5.4,2.4,5.4,5.3l0,0c0.1,1.7,1.5,3.1,3.2,3.1
	c1.7,0,3.1-1.4,3.2-3.1h2.2c-0.1,3-2.5,5.3-5.4,5.3s-5.4-2.4-5.4-5.3l0,0c-0.1-1.7-1.5-3.1-3.2-3.1c-1.7,0-3.1,1.4-3.2,3.1h-2.2
	C137,7.5,139.4,5.2,142.4,5.2z"/>
<path fill-rule="evenodd" clip-rule="evenodd" fill="#FF0000" d="M165.6,5.1v5.3c0,0,0,0,0,0.1c-0.1,1.7-1.5,3-3.2,3
	c-1.7,0-3.1-1.3-3.2-3c0,0,0-5.4,0-5.4h-2.2c0,0,0,5.4,0,5.4c0.1,2.9,2.5,5.3,5.4,5.3c2.9,0,5.3-2.3,5.4-5.3c0,0,0,0,0-0.1V5.1
	H165.6z"/>
<path fill-rule="evenodd" clip-rule="evenodd" fill="#FF0000" d="M133.9,0c0,0,0,15.8,0,15.8h2.2c0,0,0-15.8,0-15.8H133.9z"/>
<path fill-rule="evenodd" clip-rule="evenodd" fill="#FF0000" d="M179.1,15.8L179.1,15.8v-2v0c0-1.5,0-3.4,0-3.4
	c-0.1-2.9-2.5-5.3-5.4-5.3c-0.5,0-1.1,0.1-1.6,0.2c-2.2,0.6-3.8,2.6-3.9,5c0,0.1,0,0.1,0,0.2h0c0,2.9,2.4,5.3,5.3,5.3
	c1.3,0,2.4-0.4,3.3-1.2c0,0.7,0,1.2,0,1.2c0,0,0,0,0,0H179.1z M173.6,13.7c-1.8,0-3.2-1.4-3.2-3.2l0,0l0,0c0.1-1.7,1.5-3.1,3.3-3.1
	c1.2,0,2.3,0.7,2.8,1.7c0.2,0.4,0.3,0.9,0.3,1.4C176.8,12.2,175.3,13.7,173.6,13.7z"/>
<path fill-rule="evenodd" clip-rule="evenodd" fill="#FF0000" d="M142.4,15.8c3,0,5.4-2.4,5.4-5.3l0,0c0.1-1.7,1.5-3.1,3.2-3.1
	c1.7,0,3.1,1.4,3.2,3.1c0,0,0,11.8,0,11.8h2.2c0,0,0-11.8,0-11.8c-0.1-2.9-2.5-5.3-5.4-5.3c-3,0-5.4,2.4-5.4,5.3l0,0
	c-0.1,1.7-1.5,3.1-3.2,3.1c-1.7,0-3.1-1.4-3.2-3.1h-2.2C137,13.4,139.4,15.8,142.4,15.8z"/>
<path fill="#FF0000" d="M133,11.2h-8c0.1,0.7,0.4,1.3,0.9,1.7c0.5,0.4,1.1,0.6,1.9,0.6c0.9,0,1.7-0.3,2.4-1l2.1,1
	c-0.5,0.7-1.2,1.3-1.9,1.7c-0.7,0.4-1.6,0.5-2.6,0.5c-1.6,0-2.8-0.5-3.8-1.5c-1-1-1.5-2.2-1.5-3.7c0-1.5,0.5-2.8,1.5-3.8
	c1-1,2.2-1.5,3.7-1.5c1.6,0,2.8,0.5,3.8,1.5c1,1,1.5,2.3,1.5,4L133,11.2z M130.5,9.2c-0.2-0.6-0.5-1-1-1.4s-1.1-0.5-1.7-0.5
	c-0.7,0-1.3,0.2-1.8,0.6c-0.3,0.2-0.6,0.7-0.9,1.3H130.5z"/>
<path fill="#FF0000" d="M180.8,14.7v1.1h-0.2v-1.1h-0.3v-0.2h0.9v0.2H180.8z"/>
<path fill="#FF0000" d="M182.3,15.7v-0.8l-0.3,0.6h-0.1l-0.3-0.6v0.8h-0.2v-1.2h0.2l0.4,0.8l0.3-0.8h0.2v1.2H182.3z"/>
</svg>
